<svg width="32" height="32" viewBox="0 0 32 32" fill="none" xmlns="http://www.w3.org/2000/svg">
  <rect width="32" height="32" rx="4" fill="#4F46E5"/>
  <path d="M8 10C8 9.44772 8.44772 9 9 9H23C23.5523 9 24 9.44772 24 10C24 10.5523 23.5523 11 23 11H9C8.44772 11 8 10.5523 8 10Z" fill="white"/>
  <path d="M8 16C8 15.4477 8.44772 15 9 15H19C19.5523 15 20 15.4477 20 16C20 16.5523 19.5523 17 19 17H9C8.44772 17 8 16.5523 8 16Z" fill="white"/>
  <path d="M9 21C8.44772 21 8 21.4477 8 22C8 22.5523 8.44772 23 9 23H23C23.5523 23 24 22.5523 24 22C24 21.4477 23.5523 21 23 21H9Z" fill="white"/>
</svg>
